<?xml version="1.0" encoding="UTF-8"?>
<svg id="_레이어_2" data-name="레이어_2" xmlns="http://www.w3.org/2000/svg" version="1.1" viewBox="0 0 650 850">
  <!-- Generator: Adobe Illustrator 29.4.0, SVG Export Plug-In . SVG Version: 2.1.0 Build 152)  -->
  <defs>
    <style>
      .st0 {
        font-family: MalgunGothicBold, 'Malgun Gothic';
        font-size: 17px;
      }

      .st0, .st1, .st2 {
        fill: #aaa;
      }

      .st3 {
        fill: #f4f4f4;
      }

      .st1 {
        font-family: ArialMT, Arial;
        font-size: 12px;
      }

      .st1, .st2, .st4 {
        isolation: isolate;
      }

      .st5, .st4 {
        fill: #fff;
      }

      .st2 {
        font-family: MalgunGothicRegular, 'Malgun Gothic';
        font-size: 35px;
      }

      .st6 {
        fill: #888;
      }

      .st4 {
        font-family: Arial-BoldMT, Arial;
        font-size: 18.9px;
        font-weight: 700;
      }
    </style>
  </defs>
  <g id="_배경" data-name="배경">
    <rect id="_패스_" class="st3" x="-7" y="-10" width="668" height="875"/>
  </g>
  <rect class="st5" x="38" y="400.7" width="576" height="431.6"/>
  <text class="st2" transform="translate(295.2 47)"><tspan x="0" y="0">무대</tspan></text>
  <g id="_배경-2" data-name="배경-2">
    <rect id="_패스_2" class="st3" y="670" width="650" height="5"/>
  </g>
  <polygon class="st5" points="615 395 38 395 38 126.3 75 74 568 74 615 126.3 615 395"/>
  <g>
    <text class="st1" transform="translate(207 124) scale(.9 1)"><tspan x="0" y="0">1</tspan></text>
    <text class="st1" transform="translate(207 137) scale(.9 1)"><tspan x="0" y="0">2</tspan></text>
    <text class="st1" transform="translate(207 150) scale(.9 1)"><tspan x="0" y="0">3</tspan></text>
    <text class="st1" transform="translate(207 163) scale(.9 1)"><tspan x="0" y="0">4</tspan></text>
    <text class="st1" transform="translate(207 176) scale(.9 1)"><tspan x="0" y="0">5</tspan></text>
    <text class="st1" transform="translate(207 189) scale(.9 1)"><tspan x="0" y="0">6</tspan></text>
    <text class="st1" transform="translate(207 202) scale(.9 1)"><tspan x="0" y="0">7</tspan></text>
    <text class="st1" transform="translate(207 215) scale(.9 1)"><tspan x="0" y="0">8</tspan></text>
    <text class="st1" transform="translate(207 228) scale(.9 1)"><tspan x="0" y="0">9</tspan></text>
    <text class="st1" transform="translate(204.4 241) scale(.9 1)"><tspan x="0" y="0">10</tspan></text>
    <text class="st1" transform="translate(204.4 254) scale(.9 1)"><tspan x="0" y="0">1</tspan></text>
    <text class="st1" transform="translate(209.6 254) scale(.9 1)"><tspan x="0" y="0">1</tspan></text>
    <text class="st1" transform="translate(204.4 267) scale(.9 1)"><tspan x="0" y="0">12</tspan></text>
    <text class="st1" transform="translate(204.4 280) scale(.9 1)"><tspan x="0" y="0">13</tspan></text>
    <text class="st1" transform="translate(204.4 293) scale(.9 1)"><tspan x="0" y="0">14</tspan></text>
    <text class="st1" transform="translate(204.4 306) scale(.9 1)"><tspan x="0" y="0">15</tspan></text>
    <text class="st1" transform="translate(204.4 319) scale(.9 1)"><tspan x="0" y="0">16</tspan></text>
    <text class="st1" transform="translate(204.4 332) scale(.9 1)"><tspan x="0" y="0">17</tspan></text>
    <text class="st1" transform="translate(204.4 345) scale(.9 1)"><tspan x="0" y="0">18</tspan></text>
    <text class="st1" transform="translate(204.4 358) scale(.9 1)"><tspan x="0" y="0">19</tspan></text>
    <text class="st1" transform="translate(204.4 371) scale(.9 1)"><tspan x="0" y="0">20</tspan></text>
    <text class="st1" transform="translate(204.4 384) scale(.9 1)"><tspan x="0" y="0">21</tspan></text>
    <text class="st1" transform="translate(441 124) scale(.9 1)"><tspan x="0" y="0">1</tspan></text>
    <text class="st1" transform="translate(441 137) scale(.9 1)"><tspan x="0" y="0">2</tspan></text>
    <text class="st1" transform="translate(441 150) scale(.9 1)"><tspan x="0" y="0">3</tspan></text>
    <text class="st1" transform="translate(441 163) scale(.9 1)"><tspan x="0" y="0">4</tspan></text>
    <text class="st1" transform="translate(441 176) scale(.9 1)"><tspan x="0" y="0">5</tspan></text>
    <text class="st1" transform="translate(441 189) scale(.9 1)"><tspan x="0" y="0">6</tspan></text>
    <text class="st1" transform="translate(441 202) scale(.9 1)"><tspan x="0" y="0">7</tspan></text>
    <text class="st1" transform="translate(441 215) scale(.9 1)"><tspan x="0" y="0">8</tspan></text>
    <text class="st1" transform="translate(441 228) scale(.9 1)"><tspan x="0" y="0">9</tspan></text>
    <text class="st1" transform="translate(438.4 241) scale(.9 1)"><tspan x="0" y="0">10</tspan></text>
    <text class="st1" transform="translate(438.4 254) scale(.9 1)"><tspan x="0" y="0">1</tspan></text>
    <text class="st1" transform="translate(443.6 254) scale(.9 1)"><tspan x="0" y="0">1</tspan></text>
    <text class="st1" transform="translate(438.4 267) scale(.9 1)"><tspan x="0" y="0">12</tspan></text>
    <text class="st1" transform="translate(438.4 280) scale(.9 1)"><tspan x="0" y="0">13</tspan></text>
    <text class="st1" transform="translate(438.4 293) scale(.9 1)"><tspan x="0" y="0">14</tspan></text>
    <text class="st1" transform="translate(438.4 306) scale(.9 1)"><tspan x="0" y="0">15</tspan></text>
    <text class="st1" transform="translate(438.4 319) scale(.9 1)"><tspan x="0" y="0">16</tspan></text>
    <text class="st1" transform="translate(438.4 332) scale(.9 1)"><tspan x="0" y="0">17</tspan></text>
    <text class="st1" transform="translate(438.4 345) scale(.9 1)"><tspan x="0" y="0">18</tspan></text>
    <text class="st1" transform="translate(438.4 358) scale(.9 1)"><tspan x="0" y="0">19</tspan></text>
    <text class="st1" transform="translate(438.4 371) scale(.9 1)"><tspan x="0" y="0">20</tspan></text>
    <text class="st1" transform="translate(438.4 384) scale(.9 1)"><tspan x="0" y="0">21</tspan></text>
    <g id="_그룹_">
      <circle id="_패스_3" class="st6" cx="72" cy="138" r="18"/>
      <text class="st4" transform="translate(62 145)"><tspan x="0" y="0">1F</tspan></text>
    </g>
    <g id="_그룹_2">
      <circle id="_패스_4" class="st6" cx="578" cy="138" r="18"/>
      <text class="st4" transform="translate(568 145)"><tspan x="0" y="0">1F</tspan></text>
    </g>
  </g>
  <g>
    <text class="st1" transform="translate(213 529) scale(.9 1)"><tspan x="0" y="0">1</tspan></text>
    <text class="st1" transform="translate(213 542) scale(.9 1)"><tspan x="0" y="0">2</tspan></text>
    <text class="st1" transform="translate(213 555) scale(.9 1)"><tspan x="0" y="0">3</tspan></text>
    <text class="st1" transform="translate(213 568) scale(.9 1)"><tspan x="0" y="0">4</tspan></text>
    <text class="st1" transform="translate(213 581) scale(.9 1)"><tspan x="0" y="0">5</tspan></text>
    <text class="st1" transform="translate(213 594) scale(.9 1)"><tspan x="0" y="0">6</tspan></text>
    <text class="st1" transform="translate(213 607) scale(.9 1)"><tspan x="0" y="0">7</tspan></text>
    <text class="st1" transform="translate(434 529) scale(.9 1)"><tspan x="0" y="0">1</tspan></text>
    <text class="st1" transform="translate(434 542) scale(.9 1)"><tspan x="0" y="0">2</tspan></text>
    <text class="st1" transform="translate(434 555) scale(.9 1)"><tspan x="0" y="0">3</tspan></text>
    <text class="st1" transform="translate(434 568) scale(.9 1)"><tspan x="0" y="0">4</tspan></text>
    <text class="st1" transform="translate(434 581) scale(.9 1)"><tspan x="0" y="0">5</tspan></text>
    <text class="st1" transform="translate(434 594) scale(.9 1)"><tspan x="0" y="0">6</tspan></text>
    <text class="st1" transform="translate(434 607) scale(.9 1)"><tspan x="0" y="0">7</tspan></text>
    <text class="st1" transform="translate(238 621) scale(.9 1)"><tspan x="0" y="0">8</tspan></text>
    <text class="st1" transform="translate(238 634) scale(.9 1)"><tspan x="0" y="0">9</tspan></text>
    <text class="st1" transform="translate(235.4 647) scale(.9 1)"><tspan x="0" y="0">10</tspan></text>
    <text class="st1" transform="translate(235.4 660) scale(.9 1)"><tspan x="0" y="0">1</tspan></text>
    <text class="st1" transform="translate(240.6 660) scale(.9 1)"><tspan x="0" y="0">1</tspan></text>
    <text class="st1" transform="translate(395 621) scale(.9 1)"><tspan x="0" y="0">8</tspan></text>
    <text class="st1" transform="translate(395 634) scale(.9 1)"><tspan x="0" y="0">9</tspan></text>
    <text class="st1" transform="translate(392.4 647) scale(.9 1)"><tspan x="0" y="0">10</tspan></text>
    <text class="st1" transform="translate(392.4 660) scale(.9 1)"><tspan x="0" y="0">1</tspan></text>
    <text class="st1" transform="translate(397.6 660) scale(.9 1)"><tspan x="0" y="0">1</tspan></text>
    <g id="_그룹_3">
      <circle id="_패스_5" class="st6" cx="67" cy="644" r="18"/>
      <text class="st4" transform="translate(57 651)"><tspan x="0" y="0">2F</tspan></text>
    </g>
    <g id="_그룹_4">
      <circle id="_패스_6" class="st6" cx="586" cy="644" r="18"/>
      <text class="st4" transform="translate(576 651)"><tspan x="0" y="0">2F</tspan></text>
    </g>
  </g>
  <g>
    <text class="st1" transform="translate(213 721) scale(.9 1)"><tspan x="0" y="0">1</tspan></text>
    <text class="st1" transform="translate(213 734) scale(.9 1)"><tspan x="0" y="0">2</tspan></text>
    <text class="st1" transform="translate(213 747) scale(.9 1)"><tspan x="0" y="0">3</tspan></text>
    <text class="st1" transform="translate(213 760) scale(.9 1)"><tspan x="0" y="0">4</tspan></text>
    <text class="st1" transform="translate(213 773) scale(.9 1)"><tspan x="0" y="0">5</tspan></text>
    <text class="st1" transform="translate(213 786) scale(.9 1)"><tspan x="0" y="0">6</tspan></text>
    <text class="st1" transform="translate(213 799) scale(.9 1)"><tspan x="0" y="0">7</tspan></text>
    <text class="st1" transform="translate(213 812) scale(.9 1)"><tspan x="0" y="0">8</tspan></text>
    <text class="st1" transform="translate(434 721) scale(.9 1)"><tspan x="0" y="0">1</tspan></text>
    <text class="st1" transform="translate(434 734) scale(.9 1)"><tspan x="0" y="0">2</tspan></text>
    <text class="st1" transform="translate(434 747) scale(.9 1)"><tspan x="0" y="0">3</tspan></text>
    <text class="st1" transform="translate(434 760) scale(.9 1)"><tspan x="0" y="0">4</tspan></text>
    <text class="st1" transform="translate(434 773) scale(.9 1)"><tspan x="0" y="0">5</tspan></text>
    <text class="st1" transform="translate(434 786) scale(.9 1)"><tspan x="0" y="0">6</tspan></text>
    <text class="st1" transform="translate(434 799) scale(.9 1)"><tspan x="0" y="0">7</tspan></text>
    <text class="st1" transform="translate(434 812) scale(.9 1)"><tspan x="0" y="0">8</tspan></text>
    <g id="_그룹_5">
      <circle id="_패스_7" class="st6" cx="67" cy="725" r="18"/>
      <text class="st4" transform="translate(57 732)"><tspan x="0" y="0">3F</tspan></text>
    </g>
    <g id="_그룹_6">
      <circle id="_패스_8" class="st6" cx="586" cy="725" r="18"/>
      <text class="st4" transform="translate(576 732)"><tspan x="0" y="0">3F</tspan></text>
    </g>
  </g>
  <g>
    <text class="st0" transform="translate(145.3 100)"><tspan x="0" y="0">A</tspan></text>
    <text class="st0" transform="translate(323 100)"><tspan x="0" y="0">B</tspan></text>
    <text class="st0" transform="translate(497.7 100)"><tspan x="0" y="0">C</tspan></text>
  </g>
  <g>
    <text class="st0" transform="translate(143.4 427)"><tspan x="0" y="0">A</tspan></text>
    <text class="st0" transform="translate(321.1 427)"><tspan x="0" y="0">B</tspan></text>
    <text class="st0" transform="translate(495.8 427)"><tspan x="0" y="0">C</tspan></text>
  </g>
  <g>
    <text class="st0" transform="translate(143.4 699)"><tspan x="0" y="0">A</tspan></text>
    <text class="st0" transform="translate(321.1 699)"><tspan x="0" y="0">B</tspan></text>
    <text class="st0" transform="translate(495.8 699)"><tspan x="0" y="0">C</tspan></text>
  </g>
</svg>